# xmcd
#
# Track frame offsets:
#	151
#	17846
#	31555
#	47874
#	64719
#	80900
#	98513
#	115210
#	130567
#	147558
#	161949
#	176464
#	194837
#	210738
#	231581
#	250468
#	265875
#	281928
#	300069
#	314068
#
# Disc length: 4412
#
# Revision: 2
# Processed by: cddbd v1.5.1PL0 Copyright (c) Steve Scherf et al.
# Submitted via: dBpowerAMP V4.0
# Normalized: r0:TSWAP
#
DISCID=2c113a14
DTITLE=Various Artist - VIVA Dee Jays
DYEAR=1999
DGENRE=
TTITLE0=E-Type - Here i go again
TTITLE1=Toy Box - Tarzan and Jane
TTITLE2=Dj Sakin and Friends - Nomansland
TTITLE3=Ace of Base - Always have, always will
TTITLE4=Arriba - Fiesta
TTITLE5=Rappers against racism - Only you
TTITLE6=Beatbox - Come into my club
TTITLE7=Toyya - Uh-Ah
TTITLE8=Swift - Feel good
TTITLE9=Hit 'n' Hide - Book of love
TTITLE10=C.C. Catch - I can loose my heart tonight '99
TTITLE11=Steps - Tragedy
TTITLE12=Nachtklang - It's a fine day
TTITLE13=Ricky Martin - Susanna
TTITLE14=Joanna - The power of goodbye
TTITLE15=Vengaboys - Boom, boom, boom
TTITLE16=Babe - Oh my little baby boy
TTITLE17=Spice Girls - Goodbye
TTITLE18=Bobby Summer - Oh, my darling
TTITLE19=Pipoca - Marguarida perfumada
EXTD=
EXTT0=
EXTT1=
EXTT2=
EXTT3=
EXTT4=
EXTT5=
EXTT6=
EXTT7=
EXTT8=
EXTT9=
EXTT10=
EXTT11=
EXTT12=
EXTT13=
EXTT14=
EXTT15=
EXTT16=
EXTT17=
EXTT18=
EXTT19=
PLAYORDER=
